# xmcd
#
# Track frame offsets:
#	150
#	13014
#	25026
#	35865
#	51517
#	63097
#	73521
#	86661
#	98582
#	114005
#	125605
#	136625
#	150606
#
# Disc length: 2166 seconds
#
# Revision: 1
# Processed by: cddbd v1.5.2PL0 Copyright (c) Steve Scherf et al.
# Submitted via: audiograbber 1.83.01
#
DISCID=a008740d
DTITLE=Bill And The Belles - Dreamsongs, etc.
DYEAR=2018
DGENRE=Bluegrass
TTITLE0=Hum Your Troubles Away
TTITLE1=Old Lonesome Blues
TTITLE2=Finger Pointin' Mama
TTITLE3=My Carolina Sunshine Girl
TTITLE4=Wedding Bell Chimes
TTITLE5=End Of My Rainbow
TTITLE6=When You Wore A Tulip
TTITLE7=Moonlight Shadows And You
TTITLE8=Oh Johnny Oh
TTITLE9=Good Gal I'll Be Okay
TTITLE10=Preacher And The Bear
TTITLE11=Tuck Away My Lonesome Blues
TTITLE12=Back To My Childhood Days
EXTD=
EXTT0=
EXTT1=
EXTT2=
EXTT3=
EXTT4=
EXTT5=
EXTT6=
EXTT7=
EXTT8=
EXTT9=
EXTT10=
EXTT11=
EXTT12=
PLAYORDER=
